<mxfile host="app.diagrams.net" modified="2023-04-26T11:49:20.525Z" agent="Mozilla/5.0 (Macintosh; Intel Mac OS X 10_15_7) AppleWebKit/537.36 (KHTML, like Gecko) Chrome/112.0.0.0 Safari/537.36" etag="dOadNu__6IoDmg3ROxY5" version="21.1.8" type="github">
  <diagram name="第 1 页" id="1E94K47BmIYDffLuukZ6">
    <mxGraphModel dx="1164" dy="734" grid="0" gridSize="10" guides="1" tooltips="1" connect="1" arrows="1" fold="1" page="1" pageScale="1" pageWidth="827" pageHeight="1169" math="0" shadow="0">
      <root>
        <mxCell id="0" />
        <mxCell id="1" parent="0" />
        <mxCell id="j0K8o2Y0DAs8V4pTOYMs-17" value="" style="rounded=1;whiteSpace=wrap;html=1;" vertex="1" parent="1">
          <mxGeometry x="1211" y="636" width="595" height="214" as="geometry" />
        </mxCell>
        <mxCell id="j0K8o2Y0DAs8V4pTOYMs-15" value="" style="rounded=1;whiteSpace=wrap;html=1;" vertex="1" parent="1">
          <mxGeometry x="1214" y="130" width="588" height="141" as="geometry" />
        </mxCell>
        <mxCell id="yvMJtrS2i9aQ3Wf8jmqx-13" style="edgeStyle=orthogonalEdgeStyle;rounded=0;orthogonalLoop=1;jettySize=auto;html=1;exitX=1;exitY=0.5;exitDx=0;exitDy=0;exitPerimeter=0;entryX=0.5;entryY=0.5;entryDx=0;entryDy=0;entryPerimeter=0;" parent="1" source="yvMJtrS2i9aQ3Wf8jmqx-1" target="yvMJtrS2i9aQ3Wf8jmqx-5" edge="1">
          <mxGeometry relative="1" as="geometry" />
        </mxCell>
        <mxCell id="yvMJtrS2i9aQ3Wf8jmqx-1" value="索引池" style="shape=cylinder3;whiteSpace=wrap;html=1;boundedLbl=1;backgroundOutline=1;size=15;" parent="1" vertex="1">
          <mxGeometry x="240" y="418.78" width="60" height="110" as="geometry" />
        </mxCell>
        <mxCell id="yvMJtrS2i9aQ3Wf8jmqx-2" value="特征服务" style="shape=cube;whiteSpace=wrap;html=1;boundedLbl=1;backgroundOutline=1;darkOpacity=0.05;darkOpacity2=0.1;" parent="1" vertex="1">
          <mxGeometry x="324" y="370" width="90" height="60" as="geometry" />
        </mxCell>
        <mxCell id="yvMJtrS2i9aQ3Wf8jmqx-20" style="edgeStyle=orthogonalEdgeStyle;rounded=0;orthogonalLoop=1;jettySize=auto;html=1;exitX=0;exitY=0;exitDx=66.16492146596858;exitDy=63.1875;exitPerimeter=0;entryX=0;entryY=0.5;entryDx=0;entryDy=0;entryPerimeter=0;" parent="1" source="yvMJtrS2i9aQ3Wf8jmqx-5" target="yvMJtrS2i9aQ3Wf8jmqx-7" edge="1">
          <mxGeometry relative="1" as="geometry" />
        </mxCell>
        <mxCell id="yvMJtrS2i9aQ3Wf8jmqx-5" value="排序模块" style="verticalLabelPosition=bottom;verticalAlign=top;html=1;shape=mxgraph.basic.diag_stripe;dx=39.98;rotation=-45;" parent="1" vertex="1">
          <mxGeometry x="414" y="435.58" width="80" height="76.4" as="geometry" />
        </mxCell>
        <mxCell id="yvMJtrS2i9aQ3Wf8jmqx-6" value="展示模块" style="whiteSpace=wrap;html=1;shape=mxgraph.basic.document" parent="1" vertex="1">
          <mxGeometry x="580" y="320" width="70" height="70" as="geometry" />
        </mxCell>
        <mxCell id="yvMJtrS2i9aQ3Wf8jmqx-22" style="edgeStyle=orthogonalEdgeStyle;rounded=0;orthogonalLoop=1;jettySize=auto;html=1;exitX=0.5;exitY=1;exitDx=0;exitDy=0;exitPerimeter=0;entryX=0.5;entryY=0;entryDx=0;entryDy=0;entryPerimeter=0;" parent="1" source="yvMJtrS2i9aQ3Wf8jmqx-7" target="yvMJtrS2i9aQ3Wf8jmqx-9" edge="1">
          <mxGeometry relative="1" as="geometry" />
        </mxCell>
        <mxCell id="yvMJtrS2i9aQ3Wf8jmqx-7" value="日志系统" style="whiteSpace=wrap;html=1;shape=mxgraph.basic.document" parent="1" vertex="1">
          <mxGeometry x="580" y="437.58" width="70" height="70" as="geometry" />
        </mxCell>
        <mxCell id="yvMJtrS2i9aQ3Wf8jmqx-9" value="分析系统" style="whiteSpace=wrap;html=1;shape=mxgraph.basic.document" parent="1" vertex="1">
          <mxGeometry x="580" y="550" width="70" height="70" as="geometry" />
        </mxCell>
        <mxCell id="yvMJtrS2i9aQ3Wf8jmqx-18" style="edgeStyle=orthogonalEdgeStyle;rounded=0;orthogonalLoop=1;jettySize=auto;html=1;exitX=0;exitY=1;exitDx=0;exitDy=0;exitPerimeter=0;entryX=0.633;entryY=-0.012;entryDx=0;entryDy=0;entryPerimeter=0;" parent="1" source="yvMJtrS2i9aQ3Wf8jmqx-11" target="yvMJtrS2i9aQ3Wf8jmqx-2" edge="1">
          <mxGeometry relative="1" as="geometry" />
        </mxCell>
        <mxCell id="yvMJtrS2i9aQ3Wf8jmqx-11" value="" style="shape=umlActor;verticalLabelPosition=bottom;verticalAlign=top;html=1;outlineConnect=0;" parent="1" vertex="1">
          <mxGeometry x="370" y="310" width="20" height="40" as="geometry" />
        </mxCell>
        <mxCell id="yvMJtrS2i9aQ3Wf8jmqx-19" style="edgeStyle=orthogonalEdgeStyle;rounded=0;orthogonalLoop=1;jettySize=auto;html=1;exitX=0.5;exitY=1;exitDx=0;exitDy=0;exitPerimeter=0;entryX=0.177;entryY=-0.006;entryDx=0;entryDy=0;entryPerimeter=0;" parent="1" source="yvMJtrS2i9aQ3Wf8jmqx-12" target="yvMJtrS2i9aQ3Wf8jmqx-2" edge="1">
          <mxGeometry relative="1" as="geometry" />
        </mxCell>
        <mxCell id="yvMJtrS2i9aQ3Wf8jmqx-12" value="" style="verticalLabelPosition=bottom;verticalAlign=top;html=1;shape=mxgraph.basic.heart" parent="1" vertex="1">
          <mxGeometry x="330" y="320" width="20" height="20" as="geometry" />
        </mxCell>
        <mxCell id="yvMJtrS2i9aQ3Wf8jmqx-17" value="" style="endArrow=classic;html=1;rounded=0;exitX=0;exitY=0;exitDx=55;exitDy=60.00000000000001;exitPerimeter=0;edgeStyle=orthogonalEdgeStyle;entryX=0.675;entryY=0.333;entryDx=0;entryDy=0;entryPerimeter=0;" parent="1" source="yvMJtrS2i9aQ3Wf8jmqx-2" target="yvMJtrS2i9aQ3Wf8jmqx-5" edge="1">
          <mxGeometry width="50" height="50" relative="1" as="geometry">
            <mxPoint x="350" y="500" as="sourcePoint" />
            <mxPoint x="410" y="450" as="targetPoint" />
            <Array as="points">
              <mxPoint x="379" y="455" />
            </Array>
          </mxGeometry>
        </mxCell>
        <mxCell id="yvMJtrS2i9aQ3Wf8jmqx-21" value="" style="endArrow=classic;html=1;rounded=0;entryX=0;entryY=0.5;entryDx=0;entryDy=0;entryPerimeter=0;edgeStyle=orthogonalEdgeStyle;exitX=0.94;exitY=0.706;exitDx=0;exitDy=0;exitPerimeter=0;" parent="1" source="yvMJtrS2i9aQ3Wf8jmqx-5" target="yvMJtrS2i9aQ3Wf8jmqx-6" edge="1">
          <mxGeometry width="50" height="50" relative="1" as="geometry">
            <mxPoint x="530" y="460" as="sourcePoint" />
            <mxPoint x="580" y="410" as="targetPoint" />
          </mxGeometry>
        </mxCell>
        <mxCell id="yvMJtrS2i9aQ3Wf8jmqx-23" value="" style="endArrow=classic;html=1;rounded=0;exitX=-0.023;exitY=0.773;exitDx=0;exitDy=0;exitPerimeter=0;entryX=0;entryY=0;entryDx=26.164921465968582;entryDy=76.4;entryPerimeter=0;edgeStyle=orthogonalEdgeStyle;dashed=1;" parent="1" source="yvMJtrS2i9aQ3Wf8jmqx-7" target="yvMJtrS2i9aQ3Wf8jmqx-5" edge="1">
          <mxGeometry width="50" height="50" relative="1" as="geometry">
            <mxPoint x="490" y="580" as="sourcePoint" />
            <mxPoint x="540" y="530" as="targetPoint" />
          </mxGeometry>
        </mxCell>
        <mxCell id="yvMJtrS2i9aQ3Wf8jmqx-24" value="" style="rounded=0;whiteSpace=wrap;html=1;" parent="1" vertex="1">
          <mxGeometry x="291" y="772" width="128" height="29" as="geometry" />
        </mxCell>
        <mxCell id="yvMJtrS2i9aQ3Wf8jmqx-25" value="" style="rounded=0;whiteSpace=wrap;html=1;" parent="1" vertex="1">
          <mxGeometry x="291" y="816" width="128" height="29" as="geometry" />
        </mxCell>
        <mxCell id="yvMJtrS2i9aQ3Wf8jmqx-26" value="" style="shape=manualInput;whiteSpace=wrap;html=1;rotation=-180;" parent="1" vertex="1">
          <mxGeometry x="292" y="861" width="127" height="45" as="geometry" />
        </mxCell>
        <mxCell id="yvMJtrS2i9aQ3Wf8jmqx-27" value="" style="shape=manualInput;whiteSpace=wrap;html=1;rotation=-180;flipH=0;flipV=1;direction=east;" parent="1" vertex="1">
          <mxGeometry x="292" y="712" width="128" height="45" as="geometry" />
        </mxCell>
        <mxCell id="yvMJtrS2i9aQ3Wf8jmqx-28" value="粗排" style="shape=loopLimit;whiteSpace=wrap;html=1;flipV=0;flipH=0;direction=south;" parent="1" vertex="1">
          <mxGeometry x="445" y="773" width="91" height="72" as="geometry" />
        </mxCell>
        <mxCell id="yvMJtrS2i9aQ3Wf8jmqx-29" value="" style="triangle;whiteSpace=wrap;html=1;" parent="1" vertex="1">
          <mxGeometry x="562" y="779" width="57" height="60" as="geometry" />
        </mxCell>
        <mxCell id="yvMJtrS2i9aQ3Wf8jmqx-30" value="召回A" style="text;html=1;strokeColor=none;fillColor=none;align=center;verticalAlign=middle;whiteSpace=wrap;rounded=0;" parent="1" vertex="1">
          <mxGeometry x="310" y="725" width="60" height="30" as="geometry" />
        </mxCell>
        <mxCell id="yvMJtrS2i9aQ3Wf8jmqx-31" value="召回B" style="text;html=1;strokeColor=none;fillColor=none;align=center;verticalAlign=middle;whiteSpace=wrap;rounded=0;" parent="1" vertex="1">
          <mxGeometry x="310" y="771" width="60" height="30" as="geometry" />
        </mxCell>
        <mxCell id="yvMJtrS2i9aQ3Wf8jmqx-32" value="召回C" style="text;html=1;strokeColor=none;fillColor=none;align=center;verticalAlign=middle;whiteSpace=wrap;rounded=0;" parent="1" vertex="1">
          <mxGeometry x="310" y="816" width="60" height="30" as="geometry" />
        </mxCell>
        <mxCell id="yvMJtrS2i9aQ3Wf8jmqx-33" value="召回D" style="text;html=1;strokeColor=none;fillColor=none;align=center;verticalAlign=middle;whiteSpace=wrap;rounded=0;" parent="1" vertex="1">
          <mxGeometry x="310" y="863" width="60" height="30" as="geometry" />
        </mxCell>
        <mxCell id="yvMJtrS2i9aQ3Wf8jmqx-34" value="精排" style="text;html=1;strokeColor=none;fillColor=none;align=center;verticalAlign=middle;whiteSpace=wrap;rounded=0;" parent="1" vertex="1">
          <mxGeometry x="554" y="794" width="60" height="30" as="geometry" />
        </mxCell>
        <mxCell id="j0K8o2Y0DAs8V4pTOYMs-1" value="供给中心" style="rounded=1;whiteSpace=wrap;html=1;" vertex="1" parent="1">
          <mxGeometry x="1210" y="521" width="594" height="87" as="geometry" />
        </mxCell>
        <mxCell id="j0K8o2Y0DAs8V4pTOYMs-2" value="品" style="shape=cylinder3;whiteSpace=wrap;html=1;boundedLbl=1;backgroundOutline=1;size=15;" vertex="1" parent="1">
          <mxGeometry x="1287.5" y="742" width="49" height="85" as="geometry" />
        </mxCell>
        <mxCell id="j0K8o2Y0DAs8V4pTOYMs-3" value="店" style="shape=cylinder3;whiteSpace=wrap;html=1;boundedLbl=1;backgroundOutline=1;size=15;" vertex="1" parent="1">
          <mxGeometry x="1370" y="742" width="47" height="87" as="geometry" />
        </mxCell>
        <mxCell id="j0K8o2Y0DAs8V4pTOYMs-4" value="红包" style="shape=cylinder3;whiteSpace=wrap;html=1;boundedLbl=1;backgroundOutline=1;size=15;" vertex="1" parent="1">
          <mxGeometry x="1451" y="746" width="47" height="87" as="geometry" />
        </mxCell>
        <mxCell id="j0K8o2Y0DAs8V4pTOYMs-5" value="任务" style="shape=cylinder3;whiteSpace=wrap;html=1;boundedLbl=1;backgroundOutline=1;size=15;" vertex="1" parent="1">
          <mxGeometry x="1602" y="746" width="47" height="87" as="geometry" />
        </mxCell>
        <mxCell id="j0K8o2Y0DAs8V4pTOYMs-6" value="权益" style="shape=cylinder3;whiteSpace=wrap;html=1;boundedLbl=1;backgroundOutline=1;size=15;" vertex="1" parent="1">
          <mxGeometry x="1682.5" y="746" width="47" height="87" as="geometry" />
        </mxCell>
        <mxCell id="j0K8o2Y0DAs8V4pTOYMs-8" value="掩码" style="shape=process;whiteSpace=wrap;html=1;backgroundOutline=1;" vertex="1" parent="1">
          <mxGeometry x="1327.75" y="677" width="361.5" height="35" as="geometry" />
        </mxCell>
        <mxCell id="j0K8o2Y0DAs8V4pTOYMs-10" value="场景A" style="ellipse;whiteSpace=wrap;html=1;" vertex="1" parent="1">
          <mxGeometry x="1250" y="176" width="120" height="80" as="geometry" />
        </mxCell>
        <mxCell id="j0K8o2Y0DAs8V4pTOYMs-11" value="场景B" style="ellipse;whiteSpace=wrap;html=1;" vertex="1" parent="1">
          <mxGeometry x="1447" y="172" width="120" height="80" as="geometry" />
        </mxCell>
        <mxCell id="j0K8o2Y0DAs8V4pTOYMs-12" value="场景C" style="ellipse;whiteSpace=wrap;html=1;" vertex="1" parent="1">
          <mxGeometry x="1644" y="172" width="120" height="80" as="geometry" />
        </mxCell>
        <mxCell id="j0K8o2Y0DAs8V4pTOYMs-13" value="场景码" style="shape=parallelogram;perimeter=parallelogramPerimeter;whiteSpace=wrap;html=1;fixedSize=1;" vertex="1" parent="1">
          <mxGeometry x="1246" y="435.58" width="525" height="50" as="geometry" />
        </mxCell>
        <mxCell id="j0K8o2Y0DAs8V4pTOYMs-14" value="承接" style="rounded=1;whiteSpace=wrap;html=1;" vertex="1" parent="1">
          <mxGeometry x="1211" y="305" width="592" height="98" as="geometry" />
        </mxCell>
        <mxCell id="j0K8o2Y0DAs8V4pTOYMs-20" value="" style="endArrow=classic;html=1;curved=1;entryX=1;entryY=0.5;entryDx=0;entryDy=0;exitX=1;exitY=0.5;exitDx=0;exitDy=0;" edge="1" parent="1" source="j0K8o2Y0DAs8V4pTOYMs-13" target="j0K8o2Y0DAs8V4pTOYMs-8">
          <mxGeometry width="50" height="50" relative="1" as="geometry">
            <mxPoint x="1796" y="467" as="sourcePoint" />
            <mxPoint x="1840" y="689" as="targetPoint" />
            <Array as="points">
              <mxPoint x="1894" y="556" />
              <mxPoint x="1855" y="625" />
            </Array>
          </mxGeometry>
        </mxCell>
        <mxCell id="j0K8o2Y0DAs8V4pTOYMs-25" value="解析" style="edgeLabel;html=1;align=center;verticalAlign=middle;resizable=0;points=[];" vertex="1" connectable="0" parent="j0K8o2Y0DAs8V4pTOYMs-20">
          <mxGeometry x="-0.0586" y="-14" relative="1" as="geometry">
            <mxPoint as="offset" />
          </mxGeometry>
        </mxCell>
        <mxCell id="j0K8o2Y0DAs8V4pTOYMs-29" value="活动" style="shape=cylinder3;whiteSpace=wrap;html=1;boundedLbl=1;backgroundOutline=1;size=15;" vertex="1" parent="1">
          <mxGeometry x="1526" y="746" width="47" height="87" as="geometry" />
        </mxCell>
      </root>
    </mxGraphModel>
  </diagram>
</mxfile>
